<?xml version="1.0" standalone="no"?>
<!DOCTYPE svg PUBLIC "-//W3C//DTD SVG 20010904//EN"
 "http://www.w3.org/TR/2001/REC-SVG-20010904/DTD/svg10.dtd">
<svg version="1.0" xmlns="http://www.w3.org/2000/svg"
 width="1024.000000pt" height="1024.000000pt" viewBox="0 0 1024.000000 1024.000000"
 preserveAspectRatio="xMidYMid meet">

<g transform="translate(0.000000,1024.000000) scale(0.100000,-0.100000)"
fill="#007aff" stroke="none">
<path d="M4867 9139 c-605 -36 -1244 -234 -1762 -547 -475 -286 -825 -604
-1164 -1055 -54 -73 -112 -153 -127 -179 -16 -25 -57 -93 -92 -150 -73 -120
-203 -380 -262 -523 -346 -844 -377 -1800 -85 -2665 71 -210 111 -304 216
-515 92 -182 109 -216 144 -270 226 -356 396 -569 646 -809 118 -114 308 -274
409 -345 82 -58 192 -133 222 -150 18 -10 85 -49 148 -86 454 -266 953 -431
1515 -501 203 -26 723 -26 925 -1 823 104 1537 424 2165 970 175 152 450 453
573 627 449 635 688 1293 741 2040 36 503 -32 1021 -199 1504 -106 306 -296
686 -466 927 -109 156 -159 222 -235 314 -127 153 -409 429 -556 547 -237 188
-527 370 -783 492 -170 80 -262 117 -457 182 -259 86 -457 131 -761 174 -202
28 -490 35 -755 19z m808 -555 c103 -26 183 -73 265 -154 123 -121 171 -237
171 -412 0 -97 -10 -145 -48 -233 -109 -250 -388 -389 -664 -331 -79 16 -140
43 -214 91 -51 34 -60 37 -103 31 -461 -65 -766 -176 -1100 -399 -496 -331
-839 -819 -986 -1404 -46 -182 -60 -173 277 -173 205 0 264 3 286 14 24 13 35
34 70 138 78 225 206 436 368 607 229 244 495 407 806 497 236 68 217 66 937
71 719 5 675 1 701 66 7 18 31 59 54 92 130 185 330 273 558 244 176 -22 349
-147 435 -315 69 -135 69 -351 0 -488 -146 -293 -493 -408 -790 -261 -91 45
-95 31 -24 -78 173 -267 268 -596 268 -937 1 -324 -85 -638 -255 -934 -32 -55
-55 -101 -53 -103 2 -3 37 11 78 30 96 45 166 61 263 61 92 -1 186 -24 256
-61 135 -74 249 -213 295 -362 20 -64 19 -226 -2 -298 -103 -359 -503 -535
-828 -365 -107 56 -226 178 -259 264 -5 15 -57 17 -619 21 -516 3 -630 6 -718
21 -274 44 -500 124 -716 251 -353 209 -633 562 -763 964 -22 68 -48 132 -57
142 -16 18 -35 19 -294 19 -201 0 -279 -3 -288 -12 -17 -17 -15 -58 9 -162 96
-424 313 -811 639 -1136 88 -88 249 -226 311 -265 9 -5 52 -34 95 -64 81 -55
255 -146 380 -200 154 -66 365 -124 570 -157 l112 -17 81 52 c45 29 112 64
149 78 59 24 81 27 192 27 135 0 193 -14 298 -72 75 -42 193 -166 234 -247
124 -242 61 -542 -150 -719 -52 -43 -150 -91 -227 -112 -61 -17 -205 -18 -277
-3 -160 34 -330 170 -392 312 -26 59 -36 65 -151 87 -481 92 -809 222 -1204
478 -211 136 -490 386 -662 592 -41 49 -206 276 -236 325 -392 634 -527 1353
-393 2094 96 538 370 1067 765 1479 466 486 1065 803 1705 902 133 21 139 25
170 94 73 160 209 279 375 327 77 22 221 24 300 3z"/>
<path d="M5041 6280 c-255 -52 -482 -188 -633 -378 -98 -123 -147 -220 -200
-392 -21 -67 -23 -95 -23 -270 0 -182 2 -201 27 -280 76 -247 188 -412 384
-565 326 -256 761 -300 1137 -114 220 109 422 328 511 551 88 222 99 488 31
712 -30 98 -97 234 -160 321 -98 138 -290 288 -451 354 -186 76 -434 100 -623
61z m419 -419 c240 -95 387 -271 428 -513 15 -92 15 -104 -1 -200 -25 -153
-75 -248 -186 -358 -87 -86 -152 -126 -266 -165 -64 -22 -223 -30 -297 -17
-218 41 -410 199 -491 404 -76 192 -55 406 57 581 80 124 239 241 386 282 84
23 297 15 370 -14z"/>
</g>
</svg>


